# xmcd CD database file
#
# Track frame offsets:
#	150
#	6927
#	11898
#	16127
#	37352
#	46943
#	63027
#	76130
#	91316
#	103841
#	125310
#	142864
#	169874
#	190628
#	211655
#	235832
#
# Disc length: 3311 seconds
#
# Revision: 0
# Processed by: cddbd v1.5.2PL0 Copyright (c) Steve Scherf et al.
# Submitted via: CDex 1.51
#
DISCID=c30ced10
DTITLE=Various Artist - FANIA LIVE 03 from the fresh coast
DYEAR=2008
DGENRE=Salsa
TTITLE0=Intro: Raices
TTITLE1=Ghana' E - Willie Colon, Hector Lavoe
TTITLE2=Botanica - Ismael Miranda
TTITLE3=Justicia - Eddie Palmieri
TTITLE4=Los Negros De La Central - Julio Castro
TTITLE5=Abidjan - Ray Barretto, Manu Dibango
TTITLE6=Hierba Buena - George Guzman
TTITLE7=Indestructible - Ray Barretto
TTITLE8=La Murga - Willie Colon, Hector Lavoe
TTITLE9=Si Estas Herido - Tommy Olivencia
TTITLE10=La Revolucion - Orquesta Harlow
TTITLE11=Pedro Navaja - Ruben Blades, Willie Colon
TTITLE12=Mi Gente - Hector Lavoe
TTITLE13=Watergate - Tipica 73
TTITLE14=Aguanile - Willie Colon, Hector Lavoe
TTITLE15=Paz - Orquesta Flamboyan
EXTD=YEAR: 2008
EXTT0=
EXTT1=
EXTT2=
EXTT3=
EXTT4=
EXTT5=
EXTT6=
EXTT7=
EXTT8=
EXTT9=
EXTT10=
EXTT11=
EXTT12=
EXTT13=
EXTT14=
EXTT15=
PLAYORDER=
